<?xml version="1.0" encoding="UTF-8"?>
<svg width="24px" height="24px" viewBox="0 0 24 24" version="1.1" xmlns="http://www.w3.org/2000/svg">
    <g stroke="none" stroke-width="1" fill="none" fill-rule="evenodd">
        <path d="M16,5 L16,4 C16,2.8954305 15.1045695,2 14,2 L10,2 C8.8954305,2 8,2.8954305 8,4 L8,5 L8,7 C8,7.55228475 8.44771525,8 9,8 L15,8 C15.5522847,8 16,7.55228475 16,7 L16,5 Z" fill="#10B981"/>
        <path d="M5,9 L19,9 C20.1045695,9 21,9.8954305 21,11 L21,20 C21,21.1045695 20.1045695,22 19,22 L5,22 C3.8954305,22 3,21.1045695 3,20 L3,11 C3,9.8954305 3.8954305,9 5,9 Z" fill="#10B981"/>
    </g>
</svg> 